<svg width="270" height="270" viewBox="0 0 270 270" fill="none" xmlns="http://www.w3.org/2000/svg">
<circle cx="135" cy="135" r="135" fill="#097489"/>
<circle cx="135" cy="134" r="125" fill="#0BBBDE"/>
<path d="M142.651 74.4024C142.651 74.4024 185.976 81.1813 182.691 142.918C182.678 143.147 187.7 146.481 188.093 146.837C191.595 150.004 194.532 154.059 195.818 158.803C200.392 175.697 184.037 193.104 170.812 197.725C165.872 199.451 160.65 200.288 155.418 200.441C121.408 201.431 76.3799 179.814 74.0672 137.599C73.9844 136.084 73.964 134.568 74.003 133.055C74.2079 125.039 76.1425 117.233 79.0583 109.984C79.057 109.984 97.9853 63.0344 142.651 74.4024Z" fill="#EFCC9F"/>
<g style="mix-blend-mode:multiply" opacity="0.5">
<g style="mix-blend-mode:multiply" opacity="0.5">
<path d="M183.786 143.566C183.317 144.716 182.85 146.185 182.719 147.025C182.162 150.63 183.395 154.352 185.537 157.028C187.571 159.569 190.476 161.218 193.287 161.84C194.237 162.05 195.386 162.157 196.391 162.192C195.331 151.754 186.835 145.489 183.786 143.566Z" fill="#FBC8BE"/>
</g>
</g>
<g style="mix-blend-mode:multiply" opacity="0.5">
<g style="mix-blend-mode:multiply" opacity="0.5">
<path d="M122.72 171.003C130.765 169.274 135.758 160.795 133.871 152.065C131.985 143.334 123.933 137.658 115.888 139.387C107.843 141.117 102.85 149.596 104.736 158.326C106.623 167.057 114.674 172.733 122.72 171.003Z" fill="#FBC8BE"/>
</g>
</g>
<path opacity="0.3" d="M162.114 146.585C162.114 146.585 168.987 140.046 174.307 146.194L162.114 146.585Z" fill="#A3734F"/>
<path d="M98.0312 179.178C75.1651 190.638 54.3972 161.876 61.04 145.714C65.2774 135.404 77.6432 134.606 84.8124 144.026C89.0433 149.585 92.4678 156.692 94.4132 163.489" fill="#EFCC9F"/>
<path opacity="0.3" d="M79.1855 153.512C82.1293 156.508 84.4964 160.952 87.4048 163.431C86.8659 159.284 86.0065 154.855 83.9918 151.118C81.9461 147.321 78.2273 144.194 74.4421 144.45C69.751 144.769 65.8905 150.234 65.3958 155.189C65.6915 152.223 71.6537 150.218 73.9299 150.5C77.4965 157.222 78.8814 170.467 78.8814 170.467C81.8476 162.97 80.6434 157.071 79.1855 153.512Z" fill="#A3734F"/>
<path fill-rule="evenodd" clip-rule="evenodd" d="M170.091 155.05C170.448 155.037 170.795 155.17 171.053 155.418C172.428 156.744 174.825 158.458 177.47 159.276C180.078 160.084 182.773 159.99 185.091 158.003C185.643 157.529 186.476 157.593 186.948 158.146C187.422 158.698 187.358 159.53 186.806 160.004C183.591 162.76 179.863 162.776 176.69 161.795C174.137 161.003 171.846 159.547 170.224 158.207C158.194 170.616 143.068 166.933 136.884 163.446C136.25 163.088 136.026 162.285 136.383 161.651C136.741 161.017 137.544 160.793 138.178 161.15C143.917 164.385 158.135 167.766 169.159 155.487C169.397 155.221 169.734 155.063 170.091 155.05Z" fill="#592125"/>
<path d="M141.598 139.064C144.507 139.012 147.419 140.059 149.996 141.625C151.541 140.046 152.284 137.347 151.703 134.528C150.889 130.572 147.808 127.92 144.823 128.604C141.839 129.289 140.08 133.052 140.896 137.007C141.047 137.75 141.302 138.428 141.598 139.064Z" fill="#2A1200"/>
<path d="M179.726 139.546C180.156 138.598 180.407 137.44 180.383 136.175C180.324 133.033 178.642 130.497 176.625 130.514C174.608 130.531 173.021 133.092 173.08 136.237C173.113 137.965 173.647 139.492 174.447 140.529C176.131 139.876 177.919 139.564 179.726 139.546Z" fill="#2A1200"/>
<path d="M152.515 115.84C148.009 115.107 143.18 116.791 139.937 120.207C138.892 121.309 138.599 123.263 139.692 124.506C140.7 125.657 142.536 126.009 143.655 124.828C143.99 124.474 144.341 124.139 144.712 123.828C144.828 123.731 145.148 123.559 145.249 123.416C145.305 123.379 145.36 123.342 145.418 123.306C145.771 123.083 146.136 122.879 146.508 122.694C146.722 122.588 146.938 122.49 147.155 122.397C147.225 122.368 147.294 122.34 147.365 122.313C147.556 122.279 147.775 122.176 147.95 122.128C148.178 122.066 148.407 122.011 148.638 121.963C149.042 121.879 149.45 121.815 149.859 121.774C149.916 121.768 149.972 121.764 150.03 121.76C150.251 121.761 150.471 121.757 150.693 121.765C151.163 121.785 151.632 121.837 152.098 121.913C153.555 122.15 155.065 120.716 155.108 119.141C155.154 117.407 154.076 116.094 152.515 115.84Z" fill="#351700"/>
<path d="M182.773 121.017C181.137 118.765 178.731 117.287 176.137 116.858C175.437 116.742 174.62 117.01 174.073 117.478C173.535 117.938 173.084 118.749 173.037 119.506C172.988 120.293 173.144 121.137 173.635 121.755C174.132 122.382 174.756 122.78 175.517 122.907C175.641 122.927 175.762 122.962 175.886 122.989C176.252 123.115 176.606 123.271 176.951 123.454C177.343 123.72 177.709 124.021 178.053 124.359C178.166 124.493 178.284 124.621 178.388 124.764C178.836 125.38 179.556 125.82 180.271 125.916C180.954 126.008 181.805 125.788 182.334 125.295C182.881 124.784 183.321 124.076 183.371 123.266C183.42 122.458 183.247 121.67 182.773 121.017Z" fill="#351700"/>
<path d="M187.368 91.3806C187.08 85.7021 184.994 77.1508 178.354 79.1303C177.19 79.4769 176.168 80.2387 175.383 81.2278C175.079 80.0923 174.635 78.9599 174.08 77.8425C172.543 74.7426 168.35 73.5116 165.606 75.4313C164.974 75.875 164.45 76.4173 164.009 77.0089C157.444 71.9593 150.4 67.609 142.724 65.0708C131.527 61.3673 119.344 61.6855 108.088 65.1723C106.881 65.5459 105.684 65.9567 104.496 66.4004C93.2804 70.5924 81.9381 77.6677 74.5473 87.8384C67.2954 97.8165 63.5408 110.183 62.2965 122.712C61.9373 126.324 61.7515 129.959 61.757 133.592C61.757 133.943 61.757 131.879 61.8671 136.062C65.0546 128.813 77.5858 130.296 77.5858 130.296L84.8406 138.533C86.5927 140.76 88.491 154.503 90.7275 152.865L91.7168 152.371C93.2569 151.243 92.4175 142.356 92.3721 140.34C92.0776 127.087 97.5319 113.252 106.38 105.182C115.375 96.9784 128.429 93.8202 140.368 93.0777C150.392 92.4547 160.151 94.9736 168.813 100.507C171.593 102.282 174.236 104.324 176.666 106.626C176.84 106.792 179.229 109.453 179.333 109.399C185.202 106.381 187.475 99.1192 187.403 92.4876C187.398 92.1335 187.387 91.7631 187.368 91.3806Z" fill="#220F01"/>
<path d="M142.724 65.0726C150.4 67.6108 157.444 71.9612 164.009 77.0107C164.348 76.5535 164.756 76.1441 165.207 75.7737C164.311 76.794 163.604 78.1176 163.009 79.3786C160.36 77.1407 157.024 75.9097 153.677 76.9345C150.473 77.916 148.213 80.6245 146.853 83.8007C139.214 79.2128 131.039 77.4633 121.656 79.2291C110.423 81.3431 100.605 89.1385 94.0855 99.1404C85.3073 112.608 85.2079 138.102 91.8185 152.227C91.6588 152.379 91.8185 152.227 90.7325 153.079C88.496 154.716 85.6159 142.981 79.1854 139.686C76.3275 138.093 69.0947 136.688 63.0269 143.146C61.7568 137.379 61.7568 134.744 61.7568 131.779C61.7515 128.193 61.9323 126.373 62.2824 122.854L62.2964 122.713C63.5406 110.185 67.2952 97.8183 74.5472 87.8403C81.938 77.6695 93.2804 70.5942 104.496 66.4022C105.684 65.9584 106.881 65.5476 108.088 65.1742C119.344 61.6873 131.527 61.3691 142.724 65.0726Z" fill="#220F01"/>
<path fill-rule="evenodd" clip-rule="evenodd" d="M198.569 132.737L182.409 132.156L182.245 128.697L198.643 129.443L198.569 132.737Z" fill="#351700"/>
<path fill-rule="evenodd" clip-rule="evenodd" d="M140.925 112.134C131.964 113.546 125.74 122.729 127.34 132.888C128.939 143.047 137.684 149.872 146.646 148.461C155.607 147.048 161.831 137.865 160.232 127.706C158.632 117.547 149.887 110.722 140.925 112.134ZM123.832 129.325C124.003 119.227 130.715 110.407 140.414 108.879C151.397 107.148 161.612 115.497 163.454 127.198C163.454 127.2 163.455 127.203 163.455 127.205C163.795 127.068 164.163 126.937 164.559 126.822C165.757 126.474 167.267 126.26 168.838 126.588C169.039 122.47 170.236 118.689 172.184 115.703C174.606 111.991 178.252 109.435 182.588 109.208C186.917 108.981 190.872 111.132 193.776 114.547C196.68 117.963 198.616 122.72 198.984 128.004C199.352 133.288 198.091 138.224 195.672 141.933C193.25 145.645 189.603 148.201 185.268 148.428C180.939 148.654 176.983 146.504 174.079 143.089C171.249 139.761 169.338 135.158 168.902 130.036C167.772 129.574 166.575 129.666 165.47 129.988C164.781 130.188 164.18 130.466 163.742 130.7C163.819 141.034 157.038 150.158 147.158 151.715C136.174 153.446 125.96 145.098 124.117 133.396C124.08 133.16 124.046 132.924 124.017 132.689L95.5451 128.101C90.204 127.362 84.8726 127.607 80.9352 128.929C76.9858 130.256 74.9014 135.135 74.8388 138.165L71.5765 138.087C71.6807 133.049 75.3381 127.334 79.8971 125.804C84.464 124.27 90.3426 124.055 95.9974 124.84L96.015 124.843L123.832 129.325ZM174.911 117.52C172.922 120.568 171.803 124.772 172.126 129.41C172.448 134.048 174.144 138.115 176.552 140.947C178.962 143.781 182.002 145.299 185.089 145.139C188.171 144.977 190.959 143.16 192.944 140.116C194.933 137.068 196.052 132.864 195.729 128.226C195.407 123.588 193.711 119.52 191.303 116.688C188.893 113.855 185.854 112.336 182.767 112.497C179.685 112.659 176.897 114.476 174.911 117.52Z" fill="#71472D"/>
</svg>
