<svg width="75" height="75" viewBox="0 0 75 75" fill="none" xmlns="http://www.w3.org/2000/svg">
<circle cx="37.5" cy="37.5" r="37.5" fill="#097489"/>
<circle cx="37.5001" cy="37.2222" r="34.7222" fill="#0BBBDE"/>
<path d="M39.9031 20.0562C39.9031 20.0562 51.9379 21.9393 51.0253 39.0883C51.0218 39.152 52.4167 40.078 52.5258 40.177C53.4986 41.0566 54.3145 42.1831 54.6716 43.5009C55.9421 48.1935 51.3993 53.0289 47.7255 54.3125C46.3534 54.7919 44.9028 55.0246 43.4495 55.0669C34.0022 55.3419 21.4944 49.3373 20.852 37.6108C20.829 37.19 20.8233 36.7688 20.8342 36.3486C20.8911 34.122 21.4285 31.9535 22.2384 29.94C22.2381 29.9401 27.4959 16.8984 39.9031 20.0562Z" fill="#EFCC9F"/>
<g style="mix-blend-mode:multiply" opacity="0.5">
<g style="mix-blend-mode:multiply" opacity="0.5">
<path d="M51.3295 39.2684C51.1993 39.5878 51.0694 39.9959 51.0332 40.2292C50.8785 41.2305 51.2209 42.2643 51.8159 43.0078C52.3808 43.7135 53.1877 44.1715 53.9686 44.3443C54.2325 44.4027 54.5516 44.4325 54.831 44.4421C54.5364 41.5426 52.1764 39.8024 51.3295 39.2684Z" fill="#FBC8BE"/>
</g>
</g>
<g style="mix-blend-mode:multiply" opacity="0.5">
<g style="mix-blend-mode:multiply" opacity="0.5">
<path d="M34.3665 46.8898C36.6014 46.4096 37.9882 44.0542 37.4642 41.6291C36.9402 39.204 34.7037 37.6272 32.4689 38.1075C30.234 38.588 28.8472 40.9434 29.3712 43.3685C29.8952 45.7936 32.1317 47.3703 34.3665 46.8898Z" fill="#FBC8BE"/>
</g>
</g>
<path opacity="0.3" d="M45.3094 40.107C45.3094 40.107 47.2187 38.2905 48.6965 39.9984L45.3094 40.107Z" fill="#A3734F"/>
<path d="M27.5087 49.1605C21.157 52.3441 15.3881 44.3546 17.2334 39.8649C18.4104 37.0012 21.8453 36.7795 23.8368 39.3961C25.012 40.9404 25.9633 42.9145 26.5037 44.8025" fill="#EFCC9F"/>
<path opacity="0.3" d="M22.2737 42.0311C23.0914 42.8634 23.749 44.0977 24.5569 44.7864C24.4072 43.6344 24.1685 42.4042 23.6088 41.366C23.0406 40.3113 22.0076 39.4427 20.9561 39.514C19.653 39.6024 18.5807 41.1205 18.4432 42.497C18.5254 41.6731 20.1816 41.1161 20.8138 41.1944C21.8046 43.0616 22.1892 46.7409 22.1892 46.7409C23.0132 44.6582 22.6787 43.0199 22.2737 42.0311Z" fill="#A3734F"/>
<path fill-rule="evenodd" clip-rule="evenodd" d="M47.5252 42.4585C47.6245 42.4547 47.7208 42.4917 47.7923 42.5606C48.1745 42.9288 48.8401 43.4049 49.5749 43.6323C50.2995 43.8565 51.048 43.8306 51.692 43.2785C51.8453 43.1468 52.0765 43.1647 52.2079 43.3182C52.3395 43.4718 52.3217 43.7027 52.1682 43.8344C51.2751 44.6001 50.2396 44.6045 49.3583 44.3318C48.6492 44.112 48.0127 43.7074 47.5623 43.3351C44.2205 46.7823 40.019 45.7591 38.3011 44.7905C38.125 44.6912 38.0627 44.4682 38.162 44.2918C38.2612 44.1158 38.4844 44.0536 38.6605 44.1529C40.2546 45.0514 44.2042 45.9906 47.2663 42.5796C47.3325 42.5058 47.426 42.462 47.5252 42.4585Z" fill="#592125"/>
<path d="M39.6106 38.0178C40.4187 38.0032 41.2276 38.2942 41.9434 38.7292C42.3726 38.2904 42.579 37.5407 42.4175 36.7578C42.1913 35.6589 41.3356 34.9221 40.5065 35.1123C39.6774 35.3025 39.1889 36.3477 39.4156 37.4464C39.4576 37.6528 39.5283 37.8411 39.6106 38.0178Z" fill="#2A1200"/>
<path d="M50.2018 38.1519C50.3212 37.8885 50.3909 37.5668 50.3842 37.2153C50.3679 36.3425 49.9005 35.6382 49.3403 35.643C48.78 35.6474 48.3392 36.3591 48.3555 37.2326C48.3649 37.7125 48.5132 38.1367 48.7354 38.4248C49.203 38.2435 49.6996 38.1568 50.2018 38.1519Z" fill="#2A1200"/>
<path d="M42.6431 31.5665C41.3913 31.3629 40.0498 31.8308 39.1492 32.7798C38.8588 33.0857 38.7776 33.6284 39.081 33.974C39.3612 34.2936 39.8712 34.3914 40.1818 34.0634C40.2749 33.9651 40.3724 33.8719 40.4755 33.7856C40.5076 33.7587 40.5966 33.7109 40.6247 33.6712C40.6401 33.6609 40.6556 33.6506 40.6717 33.6406C40.7698 33.5787 40.8711 33.522 40.9744 33.4706C41.034 33.4412 41.0938 33.4139 41.1542 33.3881C41.1735 33.38 41.1928 33.3723 41.2123 33.3646C41.2655 33.3553 41.3265 33.3265 41.3749 33.3133C41.4383 33.296 41.5019 33.2808 41.5662 33.2674C41.6783 33.2441 41.7915 33.2265 41.9051 33.215C41.9212 33.2134 41.9366 33.2122 41.9527 33.211C42.014 33.2113 42.0753 33.2101 42.1369 33.2126C42.2674 33.218 42.3976 33.2326 42.5272 33.2535C42.9318 33.3194 43.3514 32.9211 43.3633 32.4835C43.3762 32.0019 43.0766 31.6372 42.6431 31.5665Z" fill="#351700"/>
<path d="M51.048 33.0047C50.5935 32.379 49.9252 31.9684 49.2047 31.8492C49.0103 31.8171 48.7832 31.8916 48.6314 32.0215C48.4819 32.1493 48.3567 32.3747 48.3435 32.5851C48.3301 32.8035 48.3733 33.0379 48.5096 33.2097C48.6477 33.3838 48.8211 33.4944 49.0325 33.5296C49.0669 33.5353 49.1005 33.545 49.135 33.5525C49.2366 33.5876 49.3349 33.6309 49.4307 33.6817C49.5396 33.7554 49.6415 33.8392 49.7369 33.933C49.7682 33.9702 49.8012 34.0059 49.8301 34.0455C49.9544 34.2167 50.1544 34.3387 50.3529 34.3655C50.5427 34.3911 50.7792 34.33 50.926 34.1929C51.0781 34.051 51.2001 33.8543 51.2141 33.6293C51.2279 33.405 51.1797 33.1859 51.048 33.0047Z" fill="#351700"/>
<path d="M52.3245 24.7724C52.2445 23.1951 51.665 20.8197 49.8205 21.3696C49.4973 21.4659 49.2133 21.6775 48.9952 21.9522C48.9108 21.6368 48.7876 21.3223 48.6335 21.0119C48.2064 20.1508 47.0416 19.8088 46.2796 20.3421C46.1039 20.4653 45.9585 20.616 45.8359 20.7803C44.0121 19.3776 42.0556 18.1692 39.9233 17.4642C36.8132 16.4354 33.4289 16.5238 30.3024 17.4924C29.9671 17.5961 29.6345 17.7102 29.3045 17.8335C26.1891 18.9979 23.0384 20.9633 20.9854 23.7885C18.971 26.5602 17.928 29.9954 17.5824 33.4755C17.4826 34.4789 17.431 35.4886 17.4325 36.4978C17.4325 36.5953 17.4325 36.0219 17.4631 37.1838C18.3485 35.1703 21.8294 35.5822 21.8294 35.5822L23.8447 37.8704C24.3313 38.489 24.8586 42.3063 25.4799 41.8515L25.7547 41.7143C26.1825 41.4008 25.9493 38.9321 25.9367 38.3722C25.8549 34.691 27.37 30.8478 29.8279 28.6061C32.3264 26.3274 35.9526 25.4501 39.269 25.2439C42.0532 25.0708 44.7642 25.7705 47.1703 27.3076C47.9425 27.8006 48.6767 28.3679 49.3517 29.0074C49.4001 29.0534 50.0637 29.7925 50.0926 29.7776C51.7228 28.9393 52.3542 26.9221 52.3341 25.0799C52.3329 24.9816 52.3297 24.8787 52.3245 24.7724Z" fill="#220F01"/>
<path d="M39.9233 17.4647C42.0556 18.1697 44.0122 19.3781 45.8359 20.7808C45.9302 20.6538 46.0435 20.5401 46.1687 20.4372C45.9197 20.7206 45.7235 21.0883 45.5583 21.4385C44.8223 20.8169 43.8957 20.475 42.9659 20.7596C42.076 21.0323 41.4481 21.7846 41.0703 22.6669C38.9484 21.3925 36.6775 20.9065 34.0712 21.397C30.9508 21.9842 28.2237 24.1496 26.4127 26.9279C23.9743 30.669 23.9467 37.7507 25.783 41.6743C25.7386 41.7164 25.783 41.6743 25.4813 41.9108C24.8601 42.3656 24.0601 39.1059 22.2738 38.1907C21.4799 37.7481 19.4708 37.3578 17.7853 39.1517C17.4325 37.5499 17.4325 36.8178 17.4325 35.9941C17.431 34.998 17.4813 34.4927 17.5785 33.5149L17.5824 33.476C17.928 29.9959 18.971 26.5607 20.9854 23.789C23.0384 20.9638 26.1891 18.9984 29.3046 17.834C29.6345 17.7107 29.9671 17.5966 30.3024 17.4929C33.429 16.5243 36.8132 16.4359 39.9233 17.4647Z" fill="#220F01"/>
<path fill-rule="evenodd" clip-rule="evenodd" d="M55.4358 36.2604L50.947 36.0991L50.9015 35.1381L55.4563 35.3454L55.4358 36.2604Z" fill="#351700"/>
<path fill-rule="evenodd" clip-rule="evenodd" d="M39.4237 30.5372C36.9345 30.9294 35.2056 33.4804 35.6499 36.3024C36.0943 39.1243 38.5234 41.0201 41.0127 40.628C43.5021 40.2357 45.2309 37.6847 44.7866 34.8628C44.3423 32.0408 41.9131 30.1449 39.4237 30.5372ZM34.6755 35.3125C34.723 32.5075 36.5876 30.0575 39.2815 29.6331C42.3326 29.1523 45.1699 31.4714 45.6817 34.7217C45.6817 34.7224 45.682 34.723 45.682 34.7236C45.7763 34.6857 45.8787 34.6492 45.9885 34.6174C46.3213 34.5205 46.7408 34.4611 47.1773 34.5523C47.233 33.4084 47.5655 32.3581 48.1068 31.5286C48.7794 30.4975 49.7921 29.7874 50.9967 29.7244C52.1992 29.6615 53.2977 30.259 54.1043 31.2075C54.9112 32.1563 55.449 33.4778 55.5512 34.9457C55.6534 36.4135 55.303 37.7846 54.631 38.8148C53.9584 39.8459 52.9453 40.5559 51.7411 40.619C50.5386 40.6817 49.4398 40.0844 48.6331 39.1359C47.847 38.2114 47.3162 36.9329 47.1951 35.51C46.8812 35.3816 46.5487 35.4074 46.2416 35.4967C46.0504 35.5523 45.8834 35.6294 45.7617 35.6946C45.783 38.5649 43.8994 41.0995 41.1549 41.5319C38.1039 42.0127 35.2666 39.6938 34.7548 36.4434C34.7444 36.3778 34.7351 36.3123 34.7268 36.2469L26.8181 34.9726C25.3344 34.7672 23.8535 34.8353 22.7598 35.2027C21.6627 35.5711 21.0837 36.9265 21.0663 37.7682L20.1602 37.7463C20.1891 36.347 21.205 34.7596 22.4714 34.3344C23.74 33.9083 25.3729 33.8487 26.9437 34.0667L26.9486 34.0674L34.6755 35.3125ZM48.8641 32.0334C48.3117 32.88 48.0008 34.0478 48.0904 35.3362C48.1801 36.6244 48.6512 37.7542 49.3201 38.541C49.9895 39.328 50.8338 39.7499 51.6915 39.7052C52.5474 39.6603 53.3219 39.1555 53.8734 38.3101C54.4258 37.4634 54.7367 36.2955 54.647 35.0072C54.5574 33.719 54.0865 32.589 53.4174 31.8023C52.748 31.0153 51.904 30.5933 51.0463 30.6382C50.1903 30.683 49.4158 31.1877 48.8641 32.0334Z" fill="#71472D"/>
</svg>
